<svg xmlns="http://www.w3.org/2000/svg" width="50" height="50" viewBox="0 0 50 50">
  <defs>
    <style>
      .cls-1 {
        fill: #394d35;
        fill-rule: evenodd;
      }
    </style>
  </defs>
  <path id="Dashboard" class="cls-1" d="M549,568a25,25,0,1,0,25,25A25.03,25.03,0,0,0,549,568Zm0,46.314A21.314,21.314,0,1,1,570.314,593,21.338,21.338,0,0,1,549,614.314Zm0.623-35.165h-1.246v3.6h1.246v-3.6Zm-3.249,3.744-0.506-3.566-1.234.174,0.5,3.567Zm-5.4-2.519,1,3.462,1.2-.346-1-3.462Zm-3.5,1.378,1.479,3.287,1.137-.512-1.478-3.286Zm-3.269,1.857,1.924,3.046,1.054-.665-1.925-3.048Zm-2.978,2.295,2.333,2.745,0.949-.806-2.332-2.747Zm20.4-3.011,1.234,0.175,0.5-3.567-1.236-.174Zm3.2,0.6,1.2,0.346,1-3.462-1.2-.346Zm3.079,1.038,1.14,0.512,1.473-3.29-1.137-.51Zm4.827-1.59-1.918,3.049,1.055,0.665,1.918-3.048Zm3.081,2.153-2.33,2.748,0.953,0.805,2.328-2.748Zm-14.59,17.278c-0.641-.4-1.4-17.953-2.219-17.953-0.861,0-1.658,17.573-2.322,18.021A4.154,4.154,0,1,0,551.219,602.367ZM549,608.582a2.7,2.7,0,1,1,2.7-2.7A2.7,2.7,0,0,1,549,608.582Z" transform="translate(-524 -568)"/>
</svg>
