<svg xmlns="http://www.w3.org/2000/svg" width="53.812" height="61.063" viewBox="0 0 53.812 61.063">
  <defs>
    <style>
      .cls-1 {
        fill: #545c63;
        fill-rule: evenodd;
      }
    </style>
  </defs>
  <path id="Part_1" data-name="Part 1" class="cls-1" d="M550.157,428.572c-5.626,3.371-12.314,6.3-17.021,13.251-4.873,7.195-6.482,15.664-4.86,22.258,1.138,4.626,3.379,9.449,8.3,12.255,6.428,3.664,12.474,3.1,17.417,1.531,7.113-2.263,12.766-8.328,16.122-15.47,5.886-12.516,1.77-26.069-1.021-31.978-2.094-4.439-4.671-8.843-6-11.444A95.232,95.232,0,0,1,550.157,428.572Zm-4.282,37.855c-6.27-5.959-4.283-14.649-1.216-18.811,4.993-6.778,13.17-10.885,13.17-10.885s4.723,10.5,1.176,19.3C557.235,460.431,553.4,464.4,545.875,466.427ZM524.6,464.994a29.485,29.485,0,0,1-.72-6.175A34.653,34.653,0,0,1,530,439.687c4.408-6.51,10.226-9.815,15.358-12.73A116.336,116.336,0,0,0,558.38,418c-7.945,1.621-25.77,6.131-32.815,14.944-7.183,8.991-9.565,22.377.447,35.953A33.7,33.7,0,0,1,524.6,464.994Z" transform="translate(-519.313 -418)"/>
</svg>
