<svg xmlns="http://www.w3.org/2000/svg" width="50" height="50.125" viewBox="0 0 50 50.125">
  <defs>
    <style>
      .cls-1 {
        fill: #668552;
        fill-rule: evenodd;
      }
    </style>
  </defs>
  <path id="Calendar" class="cls-1" d="M565.834,905.955h-7.9v-2.526a1.562,1.562,0,0,0-1.563-1.562c-0.863,0-.437.7-0.437,1.562v2.526h-10v-2.526c0-.863-0.138-1.562-1-1.562s-0.938.7-.938,1.562v2.526h-9.937v-2.526c0-.863.362-1.562-0.5-1.562A1.563,1.563,0,0,0,532,903.429v2.526h-7.833c-2.3,0-4.167,2.6-4.167,4.9v36.979A4.166,4.166,0,0,0,524.167,952h41.667A4.165,4.165,0,0,0,570,947.833V910.854C570,908.552,568.136,905.955,565.834,905.955Zm0.175,40.945a1.042,1.042,0,0,1-1.041,1.042H524.9a1.043,1.043,0,0,1-1.043-1.042V910.854a1.043,1.043,0,0,1,1.043-1.041H532v2.525c0,0.864-.362,1.563.5,1.563a1.563,1.563,0,0,0,1.563-1.563v-2.525H544v2.525c0,0.864.076,1.563,0.938,1.563s1-.7,1-1.563v-2.525h10v2.525c0,0.864-.426,1.563.437,1.563a1.562,1.562,0,0,0,1.563-1.563v-2.525h7.03a1.042,1.042,0,0,1,1.041,1.041V946.9Zm-34.072-26.949h5.917v5.887h-5.917v-5.887Zm0,8.012h5.917v6.02h-5.917v-6.02Zm0,7.946h5.917v6.02h-5.917v-6.02Zm9.938,0h5.984v6.02h-5.984v-6.02Zm0-7.946h5.984v6.02h-5.984v-6.02Zm0-8.012h5.984v5.887h-5.984v-5.887Zm10.138,15.958H558v6.02h-5.983v-6.02Zm0-7.946H558v6.02h-5.983v-6.02Zm0-8.012H558v5.887h-5.983v-5.887Z" transform="translate(-520 -901.875)"/>
</svg>
