<svg xmlns="http://www.w3.org/2000/svg" width="60" height="52" viewBox="0 0 60 52">
  <defs>
    <style>
      .cls-1 {
        fill: #668552;
        fill-rule: evenodd;
      }
    </style>
  </defs>
  <path id="Comments" class="cls-1" d="M570.119,1149.94a1.81,1.81,0,0,1,0-3.62c2.361,0,3.843-1.94,3.843-4.31v-9.66c0-4.71-1.559-6.35-6.243-6.35h-24.6c-2.358,0-3.153,1.56-3.153,3.93,0,1-1.932,1.82-2.925,1.82s-1.113-.82-1.113-1.82c0-4.37,2.847-7.93,7.191-7.93h24.6c6.725,0,10.281,3.58,10.281,10.35v9.66A7.916,7.916,0,0,1,570.119,1149.94Zm-2.157-8v14.01c0,4.95-4.85,10.04-9.738,10.04H543.249l-5.942,5.08c-0.872.95-2.687,2.92-5.3,2.93H532a3.688,3.688,0,0,1-3.039-1.36,4.852,4.852,0,0,1-.978-3.97l0-3.78-0.471-.01c-4.845,0-9.508-4.01-9.508-8.93v-14.01c0-4.92,3.976-7.99,8.863-7.99h31.361C563.112,1133.95,567.962,1137.02,567.962,1141.94Zm-41.1-3.99c-2.9,0-4.95,1.06-4.95,3.99v14.01c0,2.92,2.048,3.99,4.95,3.99l2.271,0.05c0.978,0.03,2.821,2.14,2.821,3.13v5.65a2.177,2.177,0,0,0,.375,1.38,0.842,0.842,0,0,0,.731.23L532,1172.19l1.067-1.81c1.039-.01.951-1.07,1.595-1.77l0.336-.36,6.209-5.77a1.787,1.787,0,0,1,1.286-.55h15.733c2.9,0,5.762-3.02,5.762-5.98v-14.01c0-2.93-2.86-3.99-5.762-3.99H526.862Zm25.433,9.77H531.619a1.81,1.81,0,0,1,0-3.62h20.676A1.81,1.81,0,0,1,552.295,1147.72Zm-20.489,4.23h10.55a1.815,1.815,0,0,1,0,3.63h-10.55A1.815,1.815,0,0,1,531.806,1151.95Z" transform="translate(-518 -1122)"/>
</svg>
