<svg xmlns="http://www.w3.org/2000/svg" width="10" height="10" viewBox="0 0 26 26">
  <defs>
    <style>
      .cls-1 {
        fill: #c7cace;
        fill-rule: evenodd;
      }
    </style>
  </defs>
  <path id="Icon" class="cls-1" d="M919.063,591.373a10.905,10.905,0,0,1-2.456.3,8.181,8.181,0,0,1-.372.765,10.927,10.927,0,0,1,1.559,2c1,1.677,1.033,3.12.4,3.755s-2.081.6-3.765-.39a10.94,10.94,0,0,1-2-1.549,7.889,7.889,0,0,1-.75.368,10.894,10.894,0,0,1-.3,2.441C910.892,600.954,909.9,602,909,602s-1.9-1.046-2.386-2.937a10.9,10.9,0,0,1-.314-2.417,8.049,8.049,0,0,1-.784-0.375,10.939,10.939,0,0,1-1.953,1.523c-1.678,1-3.121,1.033-3.755.4s-0.6-2.081.389-3.765a10.914,10.914,0,0,1,1.492-1.935,7.9,7.9,0,0,1-.4-0.822,10.814,10.814,0,0,1-2.35-.3C897.047,590.892,896,589.9,896,589s1.047-1.9,2.938-2.386a10.838,10.838,0,0,1,2.361-.31,8.257,8.257,0,0,1,.39-0.8,10.931,10.931,0,0,1-1.492-1.936c-0.99-1.683-1.024-3.13-.389-3.764s2.077-.6,3.755.4a10.893,10.893,0,0,1,1.953,1.523,8.057,8.057,0,0,1,.784-0.376,10.9,10.9,0,0,1,.314-2.416C907.1,577.047,908.1,576,909,576s1.892,1.047,2.373,2.938a10.886,10.886,0,0,1,.3,2.441,7.881,7.881,0,0,1,.75.367,10.974,10.974,0,0,1,2-1.549c1.684-.99,3.13-1.024,3.765-0.389s0.6,2.077-.4,3.755a10.978,10.978,0,0,1-1.56,2,8.018,8.018,0,0,1,.362.739,10.882,10.882,0,0,1,2.467.317C920.954,587.1,922,588.1,922,589S920.954,590.892,919.063,591.373Zm-10.139-7.2a4.85,4.85,0,1,0,4.849,4.85A4.85,4.85,0,0,0,908.924,584.176ZM909,592.2a3.25,3.25,0,1,1,3.25-3.25A3.25,3.25,0,0,1,909,592.2Z" transform="translate(-896 -576)"/>
</svg>
