<svg xmlns="http://www.w3.org/2000/svg" width="50" height="50" viewBox="0 0 50 50">
  <defs>
    <style>
      .cls-1 {
        fill: #668552;
        fill-rule: evenodd;
      }
    </style>
  </defs>
  <path id="Graph" class="cls-1" d="M569.984,1234l-49.984.01,0.007,49.99,49.993-.01Zm-3.992,45.98h-9.908v-9.9l9.9-.01Zm-42-42.08h9.976v9.96h-9.973Zm10.243,21.2h4.749l-4.749,9.51v-9.51Zm0-.26,0-5.36v-5.35l10.654-.01v1.67a1.809,1.809,0,0,0-.413-0.07,1.544,1.544,0,0,0-1.224.84l-4.134,8.28h-4.88Zm10.918-4.34,3.253,4.34h-3.25Zm10.664,4.6v2.47l-0.517,1.38-2.885-3.85h3.4Zm0-10.98v10.72h-3.6l-6.38-8.52a1.438,1.438,0,0,0-.683-0.48v-1.72h10.667Zm-10.947,6.01,0.019,0.02,0,4.69h-2.373Zm3.737,4.97,5.924,7.9a1.526,1.526,0,0,0,1.292.57v2.24l-10.667.01V1259.1H548.6Zm7.473,0h0.662l-0.662,1.76v-1.76Zm0-.26v-10.72h4.773l-4.011,10.72h-0.762Zm0-10.98,0-5.38v-4.59l8.889-.01-4.014,9.98h-4.87Zm-0.263,0H545.147v-9.97H555.8l0.007,4.59Zm-10.931,0H534.229v-9.96l10.654-.01v9.97Zm-10.918.27v5.35l0,5.36h-9.976v-10.71h9.973Zm0,10.97v10.04l-0.338.68h-4.994l-4.638.01-0.006-10.72Zm-0.468,10.98-1.192,2.39-8.31,6v-8.38Zm0.472,4.94v0.44l0.01,4.53H525.3Zm8.414-15.92h2.5v10.72h-7.854Zm13.7,10.71v-2.27a1.506,1.506,0,0,0,1.091-.92l2.815-7.52h6v10.71h-9.9Zm4.008-10.98,4.01-10.72h1.883v10.72h-5.893Zm4.11-10.97,1.783-6.77v6.76Zm-29.967,27.6v-0.62l0.1-.06a1.51,1.51,0,0,0,.514-0.59l2.057-4.11h7.985l0.007,5.36,0,4.54-10.658.01Zm10.918-5.38H555.82v9.9H545.163l0-4.54Z" transform="translate(-520 -1234)"/>
</svg>
