<svg xmlns="http://www.w3.org/2000/svg" width="20" height="20" viewBox="0 0 40 40">
  <defs>
    <style>
      .cls-1 {
        fill: #6e747d;
        fill-rule: evenodd;
      }
    </style>
  </defs>
  <path id="Icon" class="cls-1" d="M2153,465.3a2.633,2.633,0,0,1-2.71,2.7,3.636,3.636,0,0,1-2.52-1.094l-8.01-8a16.828,16.828,0,0,1-9.76,3.08,16.993,16.993,0,1,1,17-16.993,16.838,16.838,0,0,1-3.1,9.786l8,8A3.613,3.613,0,0,1,2153,465.3Zm-23-31.948a11.643,11.643,0,1,0,11.65,11.643A11.662,11.662,0,0,0,2130,433.351Z" transform="translate(-2113 -428)"/>
</svg>
