<svg xmlns="http://www.w3.org/2000/svg" width="49.375" height="52.031" viewBox="0 0 49.375 52.031">
  <defs>
    <style>
      .cls-1 {
        fill: #628051;
        fill-rule: evenodd;
      }
    </style>
  </defs>
  <path id="Write" class="cls-1" d="M571.482,806.284L543.944,836.4a6.878,6.878,0,0,1-1.224,1.057l-0.026.026-0.106.08-0.027-.027a25.758,25.758,0,0,1-8.594,4.208,20.869,20.869,0,0,1-4.656.231c-0.29.012-.574,0.021-0.852,0.021a4.156,4.156,0,0,1-3.033-1c-1.283-1.16-1.342-2.6-1.384-4.175a20.641,20.641,0,0,1,0-4.866,36.329,36.329,0,0,1,1.946-5.6,10.42,10.42,0,0,1,2.181-3.778l-0.026-.026a1.013,1.013,0,0,1,.133-0.132l0.079-.106,27.513-30.094a6.828,6.828,0,0,1,4.709-2.219h0q0.17-.009.339-0.009a6.84,6.84,0,0,1,4.584,1.753L571,796.72A6.767,6.767,0,0,1,571.482,806.284Zm-39.617,19.631a3.08,3.08,0,0,0-.825-1.427,0.585,0.585,0,0,0-.059-0.032l-0.127.139a0.87,0.87,0,0,0-.115.14l-0.045.045-0.08.078a9.363,9.363,0,0,0-1.436,2.7,28.434,28.434,0,0,0-1.278,4.677,17.489,17.489,0,0,0-.2,4.094,6.034,6.034,0,0,0,.318,1.7c0.074,0.015.19,0.044,0.343,0.073a4.752,4.752,0,0,0,.884.083c0.06,0,.122,0,0.185,0a14.975,14.975,0,0,0,3.71-.21,24.3,24.3,0,0,0,7.45-3.144l0.08-.053,0.053-.053a3.438,3.438,0,0,0,.692-0.581l0.535-.586a1.21,1.21,0,0,0-.562-0.5,4.947,4.947,0,0,0-1.516-.423l-0.958-.079,0.186-.925a2.349,2.349,0,0,0-.107-1.638,1.24,1.24,0,0,0-.745-0.555,4.33,4.33,0,0,0-1.6-.132l-1.037.185,0.053-1.057a2.542,2.542,0,0,0-.32-1.691,1.155,1.155,0,0,0-.8-0.449,4.166,4.166,0,0,0-1.6.158l-0.824.291Zm0.279-2.73a4.866,4.866,0,0,1,.892,1.488,4.608,4.608,0,0,1,1.782-.053,2.951,2.951,0,0,1,1.889,1.083,3.821,3.821,0,0,1,.612,1.9,4.686,4.686,0,0,1,1.49.211,3.063,3.063,0,0,1,1.676,1.348,3.635,3.635,0,0,1,.32,2.008,3.074,3.074,0,0,1,1.383.37,3.242,3.242,0,0,1,.906.755l18.5-20.235-10.56-9.522Zm36.572-23.956-5.508-4.966a3.4,3.4,0,0,0-2.286-.9c-0.054,0-.108,0-0.161,0a3.451,3.451,0,0,0-2.368,1.136l-4.17,4.556,9.012,8.127h0a0.846,0.846,0,0,1,.066,1.2,0.86,0.86,0,0,1-1.21.066l-9.021-8.135-0.882.964,10.559,9.522,6.209-6.79A3.331,3.331,0,0,0,568.716,799.229Z" transform="translate(-523.875 -790)"/>
</svg>
